<svg width="117" height="51" viewBox="0 0 117 51" fill="none" xmlns="http://www.w3.org/2000/svg">
<path d="M0 0H112C114.761 0 117 2.23858 117 5V46C117 48.7614 114.761 51 112 51H0V0Z" fill="#EE5514"/>
<path d="M44.291 30.098C43.6377 30.098 43.0497 29.986 42.527 29.762C42.0044 29.5287 41.5937 29.202 41.295 28.782C40.9964 28.362 40.847 27.872 40.847 27.312H42.555C42.5924 27.732 42.7557 28.0773 43.045 28.348C43.3437 28.6187 43.759 28.754 44.291 28.754C44.8417 28.754 45.271 28.6233 45.579 28.362C45.887 28.0913 46.041 27.746 46.041 27.326C46.041 26.9993 45.943 26.7333 45.747 26.528C45.5604 26.3227 45.3224 26.164 45.033 26.052C44.753 25.94 44.361 25.8187 43.857 25.688C43.2224 25.52 42.7044 25.352 42.303 25.184C41.911 25.0067 41.575 24.736 41.295 24.372C41.015 24.008 40.875 23.5227 40.875 22.916C40.875 22.356 41.015 21.866 41.295 21.446C41.575 21.026 41.967 20.704 42.471 20.48C42.975 20.256 43.5584 20.144 44.221 20.144C45.1637 20.144 45.9337 20.382 46.531 20.858C47.1377 21.3247 47.4737 21.9687 47.539 22.79H45.775C45.747 22.4353 45.579 22.132 45.271 21.88C44.963 21.628 44.557 21.502 44.053 21.502C43.5957 21.502 43.2224 21.6187 42.933 21.852C42.6437 22.0853 42.499 22.4213 42.499 22.86C42.499 23.1587 42.5877 23.406 42.765 23.602C42.9517 23.7887 43.185 23.938 43.465 24.05C43.745 24.162 44.1277 24.2833 44.613 24.414C45.257 24.5913 45.7797 24.7687 46.181 24.946C46.5917 25.1233 46.937 25.3987 47.217 25.772C47.5064 26.136 47.651 26.626 47.651 27.242C47.651 27.7367 47.5157 28.2033 47.245 28.642C46.9837 29.0807 46.5964 29.4353 46.083 29.706C45.579 29.9673 44.9817 30.098 44.291 30.098ZM57.0243 25.954C57.0243 26.2433 57.0056 26.5047 56.9683 26.738H51.0743C51.1209 27.354 51.3496 27.8487 51.7603 28.222C52.1709 28.5953 52.6749 28.782 53.2723 28.782C54.1309 28.782 54.7376 28.4227 55.0923 27.704H56.8143C56.5809 28.4133 56.1563 28.9967 55.5403 29.454C54.9336 29.902 54.1776 30.126 53.2723 30.126C52.5349 30.126 51.8723 29.9627 51.2843 29.636C50.7056 29.3 50.2483 28.8333 49.9123 28.236C49.5856 27.6293 49.4223 26.9293 49.4223 26.136C49.4223 25.3427 49.5809 24.6473 49.8983 24.05C50.2249 23.4433 50.6776 22.9767 51.2563 22.65C51.8443 22.3233 52.5163 22.16 53.2723 22.16C54.0003 22.16 54.6489 22.3187 55.2183 22.636C55.7876 22.9533 56.2309 23.4013 56.5483 23.98C56.8656 24.5493 57.0243 25.2073 57.0243 25.954ZM55.3583 25.45C55.3489 24.862 55.1389 24.3907 54.7283 24.036C54.3176 23.6813 53.8089 23.504 53.2023 23.504C52.6516 23.504 52.1803 23.6813 51.7883 24.036C51.3963 24.3813 51.1629 24.8527 51.0883 25.45H55.3583ZM62.9069 22.16C63.5136 22.16 64.0549 22.286 64.5309 22.538C65.0162 22.79 65.3942 23.1633 65.6649 23.658C65.9356 24.1527 66.0709 24.75 66.0709 25.45V30H64.4889V25.688C64.4889 24.9973 64.3162 24.47 63.9709 24.106C63.6256 23.7327 63.1542 23.546 62.5569 23.546C61.9596 23.546 61.4836 23.7327 61.1289 24.106C60.7836 24.47 60.6109 24.9973 60.6109 25.688V30H59.0149V22.286H60.6109V23.168C60.8722 22.8507 61.2036 22.6033 61.6049 22.426C62.0156 22.2487 62.4496 22.16 62.9069 22.16ZM67.9947 26.108C67.9947 25.3333 68.1533 24.6473 68.4707 24.05C68.7973 23.4527 69.236 22.9907 69.7867 22.664C70.3467 22.328 70.9673 22.16 71.6487 22.16C72.1527 22.16 72.6473 22.272 73.1327 22.496C73.6273 22.7107 74.0193 23 74.3087 23.364V19.64H75.9187V30H74.3087V28.838C74.0473 29.2113 73.6833 29.5193 73.2167 29.762C72.7593 30.0047 72.232 30.126 71.6347 30.126C70.9627 30.126 70.3467 29.958 69.7867 29.622C69.236 29.2767 68.7973 28.8007 68.4707 28.194C68.1533 27.578 67.9947 26.8827 67.9947 26.108ZM74.3087 26.136C74.3087 25.604 74.1967 25.142 73.9727 24.75C73.758 24.358 73.4733 24.0593 73.1187 23.854C72.764 23.6487 72.3813 23.546 71.9707 23.546C71.56 23.546 71.1773 23.6487 70.8227 23.854C70.468 24.05 70.1787 24.344 69.9547 24.736C69.74 25.1187 69.6327 25.576 69.6327 26.108C69.6327 26.64 69.74 27.1067 69.9547 27.508C70.1787 27.9093 70.468 28.2173 70.8227 28.432C71.1867 28.6373 71.5693 28.74 71.9707 28.74C72.3813 28.74 72.764 28.6373 73.1187 28.432C73.4733 28.2267 73.758 27.928 73.9727 27.536C74.1967 27.1347 74.3087 26.668 74.3087 26.136Z" fill="white"/>
</svg>
