<svg width="96" height="52" viewBox="0 0 96 52" fill="none" xmlns="http://www.w3.org/2000/svg">
<path d="M0 0H91C93.7614 0 96 2.23858 96 5V47C96 49.7614 93.7614 52 91 52H0V0Z" fill="#EE5514"/>
<path d="M34.256 31.098C33.6027 31.098 33.0147 30.986 32.492 30.762C31.9693 30.5287 31.5587 30.202 31.26 29.782C30.9613 29.362 30.812 28.872 30.812 28.312H32.52C32.5573 28.732 32.7207 29.0773 33.01 29.348C33.3087 29.6187 33.724 29.754 34.256 29.754C34.8067 29.754 35.236 29.6233 35.544 29.362C35.852 29.0913 36.006 28.746 36.006 28.326C36.006 27.9993 35.908 27.7333 35.712 27.528C35.5253 27.3227 35.2873 27.164 34.998 27.052C34.718 26.94 34.326 26.8187 33.822 26.688C33.1873 26.52 32.6693 26.352 32.268 26.184C31.876 26.0067 31.54 25.736 31.26 25.372C30.98 25.008 30.84 24.5227 30.84 23.916C30.84 23.356 30.98 22.866 31.26 22.446C31.54 22.026 31.932 21.704 32.436 21.48C32.94 21.256 33.5233 21.144 34.186 21.144C35.1287 21.144 35.8987 21.382 36.496 21.858C37.1027 22.3247 37.4387 22.9687 37.504 23.79H35.74C35.712 23.4353 35.544 23.132 35.236 22.88C34.928 22.628 34.522 22.502 34.018 22.502C33.5607 22.502 33.1873 22.6187 32.898 22.852C32.6087 23.0853 32.464 23.4213 32.464 23.86C32.464 24.1587 32.5527 24.406 32.73 24.602C32.9167 24.7887 33.15 24.938 33.43 25.05C33.71 25.162 34.0927 25.2833 34.578 25.414C35.222 25.5913 35.7447 25.7687 36.146 25.946C36.5567 26.1233 36.902 26.3987 37.182 26.772C37.4713 27.136 37.616 27.626 37.616 28.242C37.616 28.7367 37.4807 29.2033 37.21 29.642C36.9487 30.0807 36.5613 30.4353 36.048 30.706C35.544 30.9673 34.9467 31.098 34.256 31.098ZM46.5692 26.954C46.5692 27.2433 46.5506 27.5047 46.5132 27.738H40.6192C40.6659 28.354 40.8946 28.8487 41.3052 29.222C41.7159 29.5953 42.2199 29.782 42.8172 29.782C43.6759 29.782 44.2826 29.4227 44.6372 28.704H46.3592C46.1259 29.4133 45.7012 29.9967 45.0852 30.454C44.4786 30.902 43.7226 31.126 42.8172 31.126C42.0799 31.126 41.4172 30.9627 40.8292 30.636C40.2506 30.3 39.7932 29.8333 39.4572 29.236C39.1306 28.6293 38.9672 27.9293 38.9672 27.136C38.9672 26.3427 39.1259 25.6473 39.4432 25.05C39.7699 24.4433 40.2226 23.9767 40.8012 23.65C41.3892 23.3233 42.0612 23.16 42.8172 23.16C43.5452 23.16 44.1939 23.3187 44.7632 23.636C45.3326 23.9533 45.7759 24.4013 46.0932 24.98C46.4106 25.5493 46.5692 26.2073 46.5692 26.954ZM44.9032 26.45C44.8939 25.862 44.6839 25.3907 44.2732 25.036C43.8626 24.6813 43.3539 24.504 42.7472 24.504C42.1966 24.504 41.7252 24.6813 41.3332 25.036C40.9412 25.3813 40.7079 25.8527 40.6332 26.45H44.9032ZM52.0318 23.16C52.6385 23.16 53.1798 23.286 53.6558 23.538C54.1412 23.79 54.5192 24.1633 54.7898 24.658C55.0605 25.1527 55.1958 25.75 55.1958 26.45V31H53.6138V26.688C53.6138 25.9973 53.4412 25.47 53.0958 25.106C52.7505 24.7327 52.2792 24.546 51.6818 24.546C51.0845 24.546 50.6085 24.7327 50.2538 25.106C49.9085 25.47 49.7358 25.9973 49.7358 26.688V31H48.1398V23.286H49.7358V24.168C49.9972 23.8507 50.3285 23.6033 50.7298 23.426C51.1405 23.2487 51.5745 23.16 52.0318 23.16ZM56.6996 27.108C56.6996 26.3333 56.8583 25.6473 57.1756 25.05C57.5023 24.4527 57.941 23.9907 58.4916 23.664C59.0516 23.328 59.6723 23.16 60.3536 23.16C60.8576 23.16 61.3523 23.272 61.8376 23.496C62.3323 23.7107 62.7243 24 63.0136 24.364V20.64H64.6236V31H63.0136V29.838C62.7523 30.2113 62.3883 30.5193 61.9216 30.762C61.4643 31.0047 60.937 31.126 60.3396 31.126C59.6676 31.126 59.0516 30.958 58.4916 30.622C57.941 30.2767 57.5023 29.8007 57.1756 29.194C56.8583 28.578 56.6996 27.8827 56.6996 27.108ZM63.0136 27.136C63.0136 26.604 62.9016 26.142 62.6776 25.75C62.463 25.358 62.1783 25.0593 61.8236 24.854C61.469 24.6487 61.0863 24.546 60.6756 24.546C60.265 24.546 59.8823 24.6487 59.5276 24.854C59.173 25.05 58.8836 25.344 58.6596 25.736C58.445 26.1187 58.3376 26.576 58.3376 27.108C58.3376 27.64 58.445 28.1067 58.6596 28.508C58.8836 28.9093 59.173 29.2173 59.5276 29.432C59.8916 29.6373 60.2743 29.74 60.6756 29.74C61.0863 29.74 61.469 29.6373 61.8236 29.432C62.1783 29.2267 62.463 28.928 62.6776 28.536C62.9016 28.1347 63.0136 27.668 63.0136 27.136Z" fill="white"/>
</svg>
